<svg width="180" height="180" viewBox="0 0 180 180" fill="none" xmlns="http://www.w3.org/2000/svg">
  <rect width="180" height="180" rx="40" fill="#0B0D12"/>
  <defs>
    <linearGradient id="g" x1="48" y1="37" x2="132" y2="143" gradientUnits="userSpaceOnUse">
      <stop stop-color="#2563FF"/>
      <stop offset="1" stop-color="#00D4CC"/>
    </linearGradient>
  </defs>
  <!-- Temporary Version E-inspired abstract D mark until final exported SVG assets are available. -->
  <path fill="url(#g)" d="M51 38h48c27 0 49 21 49 47 0 6-5 11-11 10-23-3-41-11-55-23-5-4-10-6-17-6H51c-6 0-11-5-11-11v-6c0-6 5-11 11-11Z"/>
  <path fill="url(#g)" d="M51 94h14c7 0 13 2 18 7 13 11 31 18 54 22 6 1 11 6 11 12 0 24-21 40-47 40H51c-6 0-11-5-11-11v-59c0-6 5-11 11-11Z" transform="translate(0 -28)"/>
</svg>
